<svg class="animated" id="freepik_stories-website-setup" xmlns="http://www.w3.org/2000/svg" viewBox="0 0 500 500" version="1.1" xmlns:xlink="http://www.w3.org/1999/xlink" xmlns:svgjs="http://svgjs.com/svgjs"><style>svg#freepik_stories-website-setup:not(.animated) .animable {opacity: 0;}svg#freepik_stories-website-setup.animated #elzpm1xdkf1j {animation: 1s 1 forwards cubic-bezier(.36,-0.01,.5,1.38) slideDown;animation-delay: 0s;}svg#freepik_stories-website-setup.animated #elx3ftbmmm4dh {animation: 1s 1 forwards cubic-bezier(.36,-0.01,.5,1.38) slideDown;animation-delay: 0.06666666666666667s;opacity: 0}svg#freepik_stories-website-setup.animated #elkx6qgg29kbo {animation: 1s 1 forwards cubic-bezier(.36,-0.01,.5,1.38) slideDown;animation-delay: 0.13333333333333333s;opacity: 0}svg#freepik_stories-website-setup.animated #elu9m08wswk9 {animation: 1s 1 forwards cubic-bezier(.36,-0.01,.5,1.38) slideDown;animation-delay: 0.2s;opacity: 0}svg#freepik_stories-website-setup.animated #elkp15linjzb {animation: 1s 1 forwards cubic-bezier(.36,-0.01,.5,1.38) slideDown;animation-delay: 0.26666666666666666s;opacity: 0}svg#freepik_stories-website-setup.animated #elwh4l9vax1wm {animation: 1s 1 forwards cubic-bezier(.36,-0.01,.5,1.38) slideDown;animation-delay: 0.3333333333333333s;opacity: 0}svg#freepik_stories-website-setup.animated #elm3q2wxwn8v {animation: 1s 1 forwards cubic-bezier(.36,-0.01,.5,1.38) slideDown;animation-delay: 0.4s;opacity: 0}svg#freepik_stories-website-setup.animated #elqz2vlwcu9lb {animation: 1s 1 forwards cubic-bezier(.36,-0.01,.5,1.38) slideDown;animation-delay: 0.4666666666666667s;opacity: 0}svg#freepik_stories-website-setup.animated #elko8eltqpj6l {animation: 1s 1 forwards cubic-bezier(.36,-0.01,.5,1.38) slideDown;animation-delay: 0.5333333333333333s;opacity: 0}svg#freepik_stories-website-setup.animated #elr9iead1vvc {animation: 1s 1 forwards cubic-bezier(.36,-0.01,.5,1.38) slideDown;animation-delay: 0.6s;opacity: 0}svg#freepik_stories-website-setup.animated #el1r5566gl7z2 {animation: 1s 1 forwards cubic-bezier(.36,-0.01,.5,1.38) slideDown;animation-delay: 0.6666666666666666s;opacity: 0}svg#freepik_stories-website-setup.animated #el48shwl5qccz {animation: 1s 1 forwards cubic-bezier(.36,-0.01,.5,1.38) slideDown;animation-delay: 0.7333333333333333s;opacity: 0}svg#freepik_stories-website-setup.animated #elz1vahrukvxc {animation: 1s 1 forwards cubic-bezier(.36,-0.01,.5,1.38) slideDown;animation-delay: 0.8s;opacity: 0}svg#freepik_stories-website-setup.animated #elxtg4lgutvpf {animation: 1s 1 forwards cubic-bezier(.36,-0.01,.5,1.38) slideDown;animation-delay: 0.8666666666666667s;opacity: 0}svg#freepik_stories-website-setup.animated #el0dvlal9wr0g4 {animation: 1s 1 forwards cubic-bezier(.36,-0.01,.5,1.38) slideDown;animation-delay: 0.9333333333333333s;opacity: 0}svg#freepik_stories-website-setup.animated #freepik--Website--inject-100 {animation: 1s 1 forwards cubic-bezier(.36,-0.01,.5,1.38) slideDown,1.5s Infinite  linear floating;animation-delay: 0s,1s;}svg#freepik_stories-website-setup.animated #freepik--Character--inject-100 {animation: 1s 1 forwards cubic-bezier(.36,-0.01,.5,1.38) slideDown,1.5s Infinite  linear floating;animation-delay: 0s,1s;}            @keyframes slideDown {                0% {                    opacity: 0;                    transform: translateY(-30px);                }                100% {                    opacity: 1;                    transform: translateY(0);                }            }                    @keyframes floating {                0% {                    opacity: 1;                    transform: translateY(0px);                }                50% {                    transform: translateY(-10px);                }                100% {                    opacity: 1;                    transform: translateY(0px);                }            }        </style><g id="freepik--background-simple--inject-100" class="animable" style="transform-origin: 292.154px 224.618px;"><path d="M280.37,116c27.76,38.41,44.46,43.3,83.09,67.89C395,204,424.22,238.48,430.32,277.06c16.08,101.65-119.25,94.64-180,69.69-42.8-17.57-56.87-45.88-62-90.24-2-17.25-.68-35.41-5.61-52.27-5.3-18.11-20-28.66-25.71-44.71C129.15,81.7,243.37,64.82,280.37,116Z" style="fill: rgb(64, 123, 255); transform-origin: 292.154px 224.618px;" id="elnss4xazdxio" class="animable"></path><g id="elul32yiovmy"><path d="M280.37,116c27.76,38.41,44.46,43.3,83.09,67.89C395,204,424.22,238.48,430.32,277.06c16.08,101.65-119.25,94.64-180,69.69-42.8-17.57-56.87-45.88-62-90.24-2-17.25-.68-35.41-5.61-52.27-5.3-18.11-20-28.66-25.71-44.71C129.15,81.7,243.37,64.82,280.37,116Z" style="fill: rgb(255, 255, 255); opacity: 0.9; transform-origin: 292.154px 224.618px;" class="animable"></path></g></g><g id="freepik--Shadow--inject-100" class="animable" style="transform-origin: 250px 416.24px;"><ellipse id="freepik--path--inject-100" cx="250" cy="416.24" rx="193.89" ry="11.32" style="fill: rgb(245, 245, 245); transform-origin: 250px 416.24px;" class="animable"></ellipse></g><g id="freepik--Website--inject-100" class="animable animator-active" style="transform-origin: 229.72px 221.36px;"><rect x="87.57" y="176.92" width="1" height="19.2" style="fill: rgb(64, 123, 255); transform-origin: 88.07px 186.52px;" id="elzpm1xdkf1j" class="animable"></rect><rect x="87.57" y="203.37" width="1" height="8.82" style="fill: rgb(64, 123, 255); transform-origin: 88.07px 207.78px;" id="elx3ftbmmm4dh" class="animable"></rect><rect x="90.72" y="129.31" width="281.15" height="184.1" rx="10.58" style="fill: rgb(64, 123, 255); transform-origin: 231.295px 221.36px;" id="elkx6qgg29kbo" class="animable"></rect><g id="elu9m08wswk9"><rect x="142.77" y="84.31" width="177.05" height="274.1" rx="7.05" style="fill: rgb(255, 255, 255); transform-origin: 231.295px 221.36px; transform: rotate(-90deg);" class="animable"></rect></g><g id="elkp15linjzb"><path d="M199.56,281.42v28.47H263V281.42a10,10,0,0,0-10-10H209.53A10,10,0,0,0,199.56,281.42Z" style="fill: rgb(64, 123, 255); opacity: 0.6; transform-origin: 231.28px 290.655px;" class="animable"></path></g><g id="elwh4l9vax1wm"><path d="M279.78,281.42v28.47h63.47V281.42a10,10,0,0,0-10-10H289.75A10,10,0,0,0,279.78,281.42Z" style="fill: rgb(64, 123, 255); opacity: 0.6; transform-origin: 311.515px 290.655px;" class="animable"></path></g><g id="elm3q2wxwn8v"><path d="M119.33,281.42v28.47h63.48V281.42a10,10,0,0,0-10-10H129.31A10,10,0,0,0,119.33,281.42Z" style="fill: rgb(64, 123, 255); opacity: 0.6; transform-origin: 151.07px 290.655px;" class="animable"></path></g><path d="M322.29,150.67H340.7a2.55,2.55,0,0,0,2.55-2.55h0a2.55,2.55,0,0,0-2.55-2.55H322.29a2.56,2.56,0,0,0-2.55,2.55h0A2.56,2.56,0,0,0,322.29,150.67Z" style="fill: rgb(64, 123, 255); transform-origin: 331.495px 148.12px;" id="elqz2vlwcu9lb" class="animable"></path><circle cx="259.61" cy="148.12" r="4.02" style="fill: rgb(64, 123, 255); transform-origin: 259.61px 148.12px;" id="elko8eltqpj6l" class="animable"></circle><path d="M251.13,148.12a4,4,0,1,1-4-4A4,4,0,0,1,251.13,148.12Z" style="fill: rgb(64, 123, 255); transform-origin: 247.13px 148.12px;" id="elr9iead1vvc" class="animable"></path><rect x="119.33" y="144.01" width="8.23" height="8.23" rx="1.6" style="fill: rgb(64, 123, 255); transform-origin: 123.445px 148.125px;" id="el1r5566gl7z2" class="animable"></rect><g id="el48shwl5qccz"><path d="M152.44,149.39h-9.6a1.27,1.27,0,0,1-1.27-1.27h0a1.27,1.27,0,0,1,1.27-1.27h9.6a1.27,1.27,0,0,1,1.27,1.27h0A1.27,1.27,0,0,1,152.44,149.39Z" style="fill: rgb(38, 50, 56); opacity: 0.2; transform-origin: 147.64px 148.12px;" class="animable"></path></g><g id="elz1vahrukvxc"><path d="M171.18,149.39h-9.6a1.27,1.27,0,0,1-1.27-1.27h0a1.27,1.27,0,0,1,1.27-1.27h9.6a1.28,1.28,0,0,1,1.28,1.27h0A1.28,1.28,0,0,1,171.18,149.39Z" style="fill: rgb(38, 50, 56); opacity: 0.2; transform-origin: 166.385px 148.12px;" class="animable"></path></g><g id="elxtg4lgutvpf"><path d="M189.93,149.39h-9.6a1.28,1.28,0,0,1-1.28-1.27h0a1.28,1.28,0,0,1,1.28-1.27h9.6a1.27,1.27,0,0,1,1.27,1.27h0A1.27,1.27,0,0,1,189.93,149.39Z" style="fill: rgb(38, 50, 56); opacity: 0.2; transform-origin: 185.125px 148.12px;" class="animable"></path></g><g id="el0dvlal9wr0g4"><path d="M208.67,149.39h-9.6a1.28,1.28,0,0,1-1.28-1.27h0a1.28,1.28,0,0,1,1.28-1.27h9.6a1.27,1.27,0,0,1,1.27,1.27h0A1.27,1.27,0,0,1,208.67,149.39Z" style="fill: rgb(38, 50, 56); opacity: 0.2; transform-origin: 203.865px 148.12px;" class="animable"></path></g></g><g id="freepik--Character--inject-100" class="animable" style="transform-origin: 312.594px 265.322px;"><g id="ele4urbocwf6n"><rect x="198.28" y="170.36" width="223.92" height="80.22" rx="10.58" style="fill: rgb(64, 123, 255); opacity: 0.4; transform-origin: 310.24px 210.47px; transform: rotate(-1.71836deg);" class="animable"></rect></g><g id="elefhqcvcq63"><path d="M285.61,216.49l-63.19,2.16a6.19,6.19,0,0,1-6.38-6h0a6.19,6.19,0,0,1,6-6.38l63.19-2.16a6.19,6.19,0,0,1,6.38,6h0A6.17,6.17,0,0,1,285.61,216.49Z" style="fill: rgb(64, 123, 255); opacity: 0.4; transform-origin: 253.825px 211.38px;" class="animable"></path></g><g id="el7puy733pssh"><path d="M264.82,236l-41.76,1.42a6.19,6.19,0,0,1-6.38-5.95h0a6.19,6.19,0,0,1,6-6.38l41.75-1.43a6.19,6.19,0,0,1,6.38,6h0A6.19,6.19,0,0,1,264.82,236Z" style="fill: rgb(64, 123, 255); opacity: 0.4; transform-origin: 243.744px 230.54px;" class="animable"></path></g><path d="M416.8,212.56l1.81,5.61,6.64-6.08a43,43,0,0,0-4.28-2.51,2.28,2.28,0,0,0-3.08.94Z" style="fill: rgb(127, 62, 59); transform-origin: 421.025px 213.742px;" id="elle5t4fr599g" class="animable"></path><polygon points="425.2 222.79 428.06 216.11 425.25 212.09 418.61 218.17 425.2 222.79" style="fill: rgb(127, 62, 59); transform-origin: 423.335px 217.44px;" id="ely90qtb9e2g" class="animable"></polygon><path d="M353.39,171.34c-3.41,4.59-6.94,8.9-10.71,13.15a142.08,142.08,0,0,1-12.1,12.21l-.24.21-.48.39a10.27,10.27,0,0,1-1,.69,9.22,9.22,0,0,1-2.24.86,9.84,9.84,0,0,1-3.9.12,17.56,17.56,0,0,1-5.33-1.88,43,43,0,0,1-7.54-5.31A88.59,88.59,0,0,1,298,179.23l4-3.79c4.16,3.39,8.52,6.77,12.88,9.64a39.29,39.29,0,0,0,6.48,3.56,7.8,7.8,0,0,0,2.55.66c.25,0,.37-.05.22-.05a.79.79,0,0,0-.31.09.77.77,0,0,0-.18.1l-.08.05.13-.14c1.83-1.86,3.6-3.86,5.38-5.86s3.5-4.1,5.23-6.18c3.44-4.18,6.89-8.48,10.2-12.68Z" style="fill: rgb(127, 62, 59); transform-origin: 325.695px 181.87px;" id="elmdqlk8vm55" class="animable"></path><polygon points="298.21 166.72 290.42 168.31 294.25 175.13 301.18 169.76 298.21 166.72" style="fill: rgb(127, 62, 59); transform-origin: 295.8px 170.925px;" id="elrg297sgfhkr" class="animable"></polygon><path d="M302.16,176.86l-1-7.1-6.93,5.37s1.07,6.18,6,6.18Z" style="fill: rgb(127, 62, 59); transform-origin: 298.195px 175.535px;" id="el7r0vxwq7q4q" class="animable"></path><path d="M302.68,175.44a.76.76,0,0,0-.75.75,1,1,0,0,0,0,.17.73.73,0,0,0-.33-.08.75.75,0,0,0-.75.75.8.8,0,0,0,.05.21h-.05a.76.76,0,0,0-.75.75.74.74,0,0,0,.16.44h0a.75.75,0,0,0-.75.75.79.79,0,0,0,.16.45.74.74,0,0,0-.6.72.76.76,0,0,0,.31.59.74.74,0,0,0-.5.7.75.75,0,0,0,1.5,0,.72.72,0,0,0-.3-.59.75.75,0,0,0,.49-.7.79.79,0,0,0-.16-.45.74.74,0,0,0,.6-.72.76.76,0,0,0-.16-.44h0a.74.74,0,0,0,.75-.75.78.78,0,0,0,0-.21h0a.75.75,0,0,0,.75-.75,1,1,0,0,0,0-.17.72.72,0,0,0,.32.08.75.75,0,0,0,0-1.5Z" style="fill: rgb(38, 50, 56); transform-origin: 301.15px 178.915px;" id="elng3o41hyhgo" class="animable"></path><path d="M394.1,163.73c2.33,4.12,4.57,8.28,6.76,12.48s4.33,8.41,6.42,12.66l.78,1.59.66,1.3.77,1.35.87,1.39c1.21,1.85,2.5,3.75,3.84,5.63l8.15,11.42-4,3.8a123.29,123.29,0,0,1-10.7-9.75c-1.69-1.74-3.36-3.53-5-5.48l-1.19-1.49L400.32,197c-.37-.58-.8-1.24-1.12-1.77l-.91-1.52c-2.44-4-4.81-8.13-7.15-12.23s-4.61-8.24-6.8-12.42Z" style="fill: rgb(127, 62, 59); transform-origin: 403.345px 189.54px;" id="el9fyphzl54aa" class="animable"></path><path d="M356.27,135.32c.13.58-.08,1.12-.45,1.22s-.78-.3-.91-.88.09-1.13.46-1.22S356.15,134.74,356.27,135.32Z" style="fill: rgb(38, 50, 56); transform-origin: 355.59px 135.491px;" id="elyjlptmgd6hc" class="animable"></path><path d="M356.24,136.43a21.94,21.94,0,0,1-1.69,5.65,3.35,3.35,0,0,0,2.86-.17Z" style="fill: rgb(99, 15, 15); transform-origin: 355.98px 139.376px;" id="el7hzoygjgnb7" class="animable"></path><path d="M354.74,131.79a.37.37,0,0,1-.29-.14.35.35,0,0,1,.09-.49,3.41,3.41,0,0,1,3.15-.24.36.36,0,0,1,.19.46.35.35,0,0,1-.46.19,2.71,2.71,0,0,0-2.48.16A.36.36,0,0,1,354.74,131.79Z" style="fill: rgb(38, 50, 56); transform-origin: 356.146px 131.217px;" id="elecja5y5ch9n" class="animable"></path><path d="M376.22,137.16c.65,6.76-.31,13.3,1.21,19.17,0,0-1.68,5.45-11.67,5.45-11,0-5-5.45-5-5.45,6-1.43,6.07-5.87,5.19-10.05Z" style="fill: rgb(127, 62, 59); transform-origin: 368.278px 149.47px;" id="el4eqe30xszcu" class="animable"></path><path d="M378.79,158.2c.86-1.72,1.8-3.7,0-4.32-1.94-.68-12.71-1.37-16.48-.09a4,4,0,0,0-2.86,4.78Z" style="fill: rgb(38, 50, 56); transform-origin: 369.58px 155.821px;" id="eluwefcs3pp5" class="animable"></path><path d="M400.2,404.07a9.12,9.12,0,0,0,2-.72.19.19,0,0,0,.11-.18.23.23,0,0,0-.13-.17c-.32-.11-3.19-1.13-4-.5a.62.62,0,0,0-.21.59,1.15,1.15,0,0,0,.6.9A2.35,2.35,0,0,0,400.2,404.07Zm1.4-.86c-1.27.55-2.31.72-2.81.45a.77.77,0,0,1-.4-.62c0-.15,0-.21.07-.24C398.86,402.47,400.45,402.83,401.6,403.21Z" style="fill: rgb(64, 123, 255); transform-origin: 400.135px 403.237px;" id="eli1jcwg7omol" class="animable"></path><path d="M402.16,403.37l.09-.05a.19.19,0,0,0,.05-.19c0-.1-.7-2.32-1.77-2.87a1,1,0,0,0-.84-.07h0a.62.62,0,0,0-.49.61c0,.91,2,2.3,2.86,2.56Zm-2.27-2.85a.66.66,0,0,1,.47.08,4.59,4.59,0,0,1,1.45,2.26c-.94-.44-2.22-1.53-2.23-2.07,0-.05,0-.16.23-.24h0Z" style="fill: rgb(64, 123, 255); transform-origin: 400.754px 401.749px;" id="el4dlu152hkly" class="animable"></path><path d="M348.67,409.31a9.17,9.17,0,0,0,2.1-.29.18.18,0,0,0,.14-.15.18.18,0,0,0-.08-.19c-.29-.19-2.88-1.78-3.77-1.32a.6.6,0,0,0-.33.54,1.16,1.16,0,0,0,.4,1A2.38,2.38,0,0,0,348.67,409.31Zm1.55-.56c-1.36.28-2.41.23-2.85-.14a.78.78,0,0,1-.26-.69c0-.15.07-.2.12-.22C347.69,407.46,349.17,408.15,350.22,408.75Z" style="fill: rgb(64, 123, 255); transform-origin: 348.819px 408.297px;" id="elx2yqk37bbyc" class="animable"></path><path d="M350.73,409a.19.19,0,0,0,.1,0,.21.21,0,0,0,.09-.18c0-.1-.2-2.41-1.14-3.17a1.05,1.05,0,0,0-.81-.25h0a.62.62,0,0,0-.6.5c-.17.9,1.44,2.65,2.27,3.1A.14.14,0,0,0,350.73,409Zm-1.62-3.26a.67.67,0,0,1,.43.17,4.54,4.54,0,0,1,.95,2.52c-.82-.63-1.85-2-1.75-2.49,0-.05,0-.16.28-.19h.09Z" style="fill: rgb(64, 123, 255); transform-origin: 349.639px 407.2px;" id="elutdo1r39t3q" class="animable"></path><polygon points="359.37 408.74 352.02 408.74 351.95 391.73 359.29 391.73 359.37 408.74" style="fill: rgb(127, 62, 59); transform-origin: 355.66px 400.235px;" id="elvry2wiei0l" class="animable"></polygon><polygon points="410.71 401.56 403.52 403.09 397.01 387.08 404.2 385.55 410.71 401.56" style="fill: rgb(127, 62, 59); transform-origin: 403.86px 394.32px;" id="elml1wds73yin" class="animable"></polygon><path d="M402.87,402.36l8.07-1.72a.63.63,0,0,1,.7.36l2.53,6.14a1.13,1.13,0,0,1-.83,1.51c-2.83.55-4.22.68-7.77,1.44-2.19.46-6.65,1.65-9.66,2.29s-3.93-2.28-2.75-2.82c5.33-2.4,7.12-4.52,8.62-6.51A1.83,1.83,0,0,1,402.87,402.36Z" style="fill: rgb(38, 50, 56); transform-origin: 403.453px 406.549px;" id="els62gll5uvb" class="animable"></path><path d="M352.1,407.89h8a.6.6,0,0,1,.61.5l1.2,6.53a1.11,1.11,0,0,1-1.11,1.3c-2.89,0-7.06-.21-10.7-.21-4.26,0-7.94.23-12.93.23-3,0-3.73-3.05-2.46-3.33,5.8-1.25,10.5-1.39,15.58-4.45A3.54,3.54,0,0,1,352.1,407.89Z" style="fill: rgb(38, 50, 56); transform-origin: 348.02px 412.065px;" id="el6gei5wkda9d" class="animable"></path><path d="M391.44,158c6.83,1.58,14,20.35,14,20.35l-14.19,9.48a110.51,110.51,0,0,1-8.54-15.53C379,163.7,384.47,156.38,391.44,158Z" style="fill: rgb(64, 123, 255); transform-origin: 393.476px 172.802px;" id="eln06z8z6l33k" class="animable"></path><g id="el65j7cn4uee"><path d="M386.05,170l5.87,17.41-.67.45s-2.68-4-5.53-9.33Z" style="opacity: 0.2; transform-origin: 388.82px 178.93px;" class="animable"></path></g><path d="M345.61,190.81c.06,8.2.55,18.4,1.77,31.06h39.3c.51-6-2.15-35.46,4.76-63.88a101.07,101.07,0,0,0-13.09-1.66,145.28,145.28,0,0,0-16.7,0,74.84,74.84,0,0,0-11.37,2s-3.37,3.64-4.38,20.71C345.7,182.45,345.59,186.33,345.61,190.81Z" style="fill: rgb(64, 123, 255); transform-origin: 368.524px 188.98px;" id="el3rxqm8kn0m" class="animable"></path><g id="eldpwe0d6r9wr"><path d="M345.61,190.81c2.38-4.34,6.7-13.05,6.09-18l-5.8,6.28C345.7,182.45,345.59,186.33,345.61,190.81Z" style="opacity: 0.2; transform-origin: 348.683px 181.81px;" class="animable"></path></g><path d="M358,165c.62,7-15.25,23.84-15.25,23.84L330,178.49A82,82,0,0,1,341.9,163C349.34,155.8,357.28,157.17,358,165Z" style="fill: rgb(64, 123, 255); transform-origin: 344.009px 173.567px;" id="elgrnk6sdvr58" class="animable"></path><g id="elu2vg0p9xx9j"><g style="opacity: 0.2; transform-origin: 379.755px 393.03px;" class="animable"><polygon points="351.95 391.73 351.98 400.5 359.33 400.5 359.3 391.73 351.95 391.73" id="el0nduwufcdq5" class="animable" style="transform-origin: 355.64px 396.115px;"></polygon><polygon points="404.2 385.56 397.01 387.09 400.37 395.34 407.56 393.81 404.2 385.56" id="elid0pwatgkoh" class="animable" style="transform-origin: 402.285px 390.45px;"></polygon></g></g><path d="M375.18,129.25c1.07,7.23,2.06,11.4-.72,15.95a9.49,9.49,0,0,1-16.79-.89c-2.87-6-4.15-16.84,2.16-21.42A9.58,9.58,0,0,1,375.18,129.25Z" style="fill: rgb(127, 62, 59); transform-origin: 365.783px 135.373px;" id="elp4kr33q83u9" class="animable"></path><path d="M362,135.35c-3.63.61-5.67-3.56-2.88-7.13-5.29.24-7.54-2.47-5.18-7.31,2-4.17,8.39-2.13,8.39-2.13s5.32-7.15,11.61-3.17c6.75,4.27,3.17,8.22,3.17,8.22s9.69,1.34,7.19,8.3a6.09,6.09,0,0,1-5,4s2.48,7.46-4.87,9S359.66,140.53,362,135.35Z" style="fill: rgb(38, 50, 56); transform-origin: 368.859px 129.888px;" id="elh9ejs5vh259" class="animable"></path><path d="M364.23,133.49a8.63,8.63,0,0,1-1.31,5.22c-1.31,2-3.11,1.25-3.69-.84-.53-1.88-.49-5.21,1.28-6.53S364,131.29,364.23,133.49Z" style="fill: rgb(127, 62, 59); transform-origin: 361.592px 135.342px;" id="el6tefpbz9bzi" class="animable"></path><path d="M361.32,221.87S367.49,278,371.26,299c4.12,23,25.47,95.33,25.47,95.33l13.16-2.8s-14.69-67.63-16.67-90.44c-2.15-24.75-6.54-79.26-6.54-79.26Z" style="fill: rgb(38, 50, 56); transform-origin: 385.605px 308.08px;" id="el7gkj2rbk7qp" class="animable"></path><path d="M393.79,389.93c-.06,0,2.24,4.81,2.24,4.81l14.8-3.15-1.06-4.49Z" style="fill: rgb(64, 123, 255); transform-origin: 402.309px 390.92px;" id="elnm4yeb02dqd" class="animable"></path><g id="elc3vm37tbylc"><path d="M365.82,241.87c9.57,1.89,7.16,37.84,5.29,56.33-2.28-13.07-5.38-38.22-7.47-56.07A3.34,3.34,0,0,1,365.82,241.87Z" style="opacity: 0.2; transform-origin: 368.233px 269.996px;" class="animable"></path></g><path d="M347.39,221.87s-3.14,54.93-3.2,77.33c-.07,23.3,5.12,99.6,5.12,99.6h12.45s3.35-74.94,4.78-97.82c1.57-25,6.68-79.11,6.68-79.11Z" style="fill: rgb(38, 50, 56); transform-origin: 358.705px 310.335px;" id="elbgyeydf7pv7" class="animable"></path><path d="M345.61,216.67a14,14,0,0,0,.89,5.2,24.52,24.52,0,0,0-.45,4.55c4,1.41,41.78,3.16,41.7,0s0-4.55,0-4.55,1-4.45,0-5.2S345.89,214,345.61,216.67Z" style="fill: rgb(64, 123, 255); transform-origin: 366.901px 221.746px;" id="elian121hpzhs" class="animable"></path><g id="el4tjf212brmb"><path d="M345.61,216.67a14,14,0,0,0,.89,5.2,24.52,24.52,0,0,0-.45,4.55c4,1.41,41.78,3.16,41.7,0s0-4.55,0-4.55,1-4.45,0-5.2S345.89,214,345.61,216.67Z" style="opacity: 0.3; transform-origin: 366.901px 221.746px;" class="animable"></path></g><path d="M347.11,393.84c-.06,0,.5,5.17.5,5.17h15.14l.59-4.61Z" style="fill: rgb(64, 123, 255); transform-origin: 355.223px 396.425px;" id="elfhus6za5k4a" class="animable"></path></g><defs>     <filter id="active" height="200%">         <feMorphology in="SourceAlpha" result="DILATED" operator="dilate" radius="2"></feMorphology>                <feFlood flood-color="#32DFEC" flood-opacity="1" result="PINK"></feFlood>        <feComposite in="PINK" in2="DILATED" operator="in" result="OUTLINE"></feComposite>        <feMerge>            <feMergeNode in="OUTLINE"></feMergeNode>            <feMergeNode in="SourceGraphic"></feMergeNode>        </feMerge>    </filter>    <filter id="hover" height="200%">        <feMorphology in="SourceAlpha" result="DILATED" operator="dilate" radius="2"></feMorphology>                <feFlood flood-color="#ff0000" flood-opacity="0.5" result="PINK"></feFlood>        <feComposite in="PINK" in2="DILATED" operator="in" result="OUTLINE"></feComposite>        <feMerge>            <feMergeNode in="OUTLINE"></feMergeNode>            <feMergeNode in="SourceGraphic"></feMergeNode>        </feMerge>            <feColorMatrix type="matrix" values="0   0   0   0   0                0   1   0   0   0                0   0   0   0   0                0   0   0   1   0 "></feColorMatrix>    </filter></defs></svg>